<svg width="1021" height="601" viewBox="0 0 1021 601" fill="none" xmlns="http://www.w3.org/2000/svg">
<path d="M964.572 599.446C1001.67 599.446 1028.59 564.47 1019.07 528.809C1003.86 471.869 960.299 395.526 838.533 359.317C676.809 311.225 685.875 117.382 556.702 117.382C427.529 117.382 426.85 215.825 388.337 225.836C349.825 235.848 220.724 206.117 191.885 293.873C138.577 456.091 67.0238 377.888 11.4948 502.815C8.04297 510.642 5.05312 518.664 2.54041 526.838C-8.64591 562.911 18.5148 599.446 56.4699 599.446H964.572Z" fill="#F3F5FD"/>
<path d="M94.5092 599.446H56.4524C49.8376 591.012 38.2417 573.996 45.7353 566.729C49.1452 563.431 52.8929 566.569 56.3802 572.195C55.1838 561.172 56.3802 550.638 64.2979 547.562C71.503 544.768 74.7238 553.21 75.9677 564.538C79.5113 558.096 84.181 553.561 90.268 553.92C98.9774 554.424 96.874 565.683 91.7794 578.149C95.6459 575.302 99.6856 573.897 103.623 575.149C111.865 577.767 104.164 588.981 94.5092 599.446Z" fill="#8DDBE0"/>
<path d="M749.965 0H256.385V396.33H749.965V0Z" fill="#DEE8F5"/>
<path d="M425.075 12.9039H420.679V383.426H425.075V12.9039Z" fill="white"/>
<path d="M585.671 12.9039H581.275V383.426H585.671V12.9039Z" fill="white"/>
<path d="M290.489 591.07L272.153 588.889C272.978 581.948 273.911 573.612 273.975 572.245C273.975 572.332 273.975 572.405 273.975 572.46H292.44C292.436 573.014 292.436 574.698 290.489 591.07Z" fill="#E98862"/>
<path d="M216.915 593.277L198.45 593.217C198.45 593.217 198.511 574.148 198.511 572.463H216.976C216.976 574.154 216.915 593.277 216.915 593.277Z" fill="#E98862"/>
<path d="M264.773 585.239L297.301 584.684C295.774 545.964 295.679 505.349 295.203 466.535C288.854 424.7 285.511 378.76 277.675 337.224L277.44 337.294L276.753 332.607L209.86 328.474L207.258 372.179H207.462C203.97 434.96 197.665 523.387 193.691 584.185L226.109 586.925C231.95 527.315 239.23 440.459 244.79 377.839C251.174 408.326 257.275 439.895 262.828 470.12C263.938 507.962 264.876 547.515 264.773 585.239Z" fill="#262626"/>
<path d="M239.362 600.42C239.858 600.417 240.349 600.313 240.803 600.112C241.258 599.912 241.666 599.62 242.002 599.254C242.339 598.889 242.596 598.458 242.758 597.989C242.921 597.519 242.984 597.022 242.946 596.527C242.892 595.84 242.644 595.184 242.23 594.634C241.815 594.084 241.253 593.664 240.608 593.423L219.116 586.224C218.7 586.086 218.259 586.04 217.823 586.088C217.387 586.137 216.967 586.279 216.591 586.505C213.636 588.555 210.102 589.603 206.508 589.495C203.708 589.296 201.02 588.314 198.752 586.662C198.552 586.498 198.31 586.395 198.054 586.363C197.798 586.332 197.539 586.374 197.306 586.484C197.073 586.595 196.876 586.77 196.739 586.988C196.601 587.206 196.529 587.459 196.53 587.717V598.227C196.53 598.537 196.591 598.844 196.71 599.131C196.829 599.417 197.003 599.677 197.223 599.896C197.442 600.115 197.703 600.288 197.99 600.406C198.277 600.524 198.584 600.584 198.894 600.582L239.362 600.42Z" fill="#C1D8ED"/>
<path d="M312.986 600.42C313.483 600.417 313.974 600.313 314.428 600.112C314.882 599.912 315.291 599.62 315.627 599.254C315.963 598.889 316.221 598.458 316.383 597.989C316.546 597.52 316.61 597.022 316.571 596.527C316.517 595.84 316.269 595.184 315.855 594.634C315.44 594.084 314.878 593.664 314.233 593.423L292.741 586.224C292.325 586.086 291.883 586.04 291.448 586.088C291.012 586.137 290.591 586.279 290.216 586.505C287.261 588.555 283.727 589.603 280.132 589.495C277.333 589.296 274.645 588.314 272.377 586.662C272.178 586.498 271.936 586.395 271.68 586.363C271.424 586.332 271.164 586.374 270.931 586.484C270.698 586.595 270.502 586.77 270.364 586.988C270.227 587.206 270.154 587.459 270.155 587.717V598.227C270.155 598.537 270.216 598.844 270.335 599.131C270.454 599.417 270.628 599.677 270.848 599.896C271.067 600.114 271.328 600.288 271.615 600.406C271.901 600.523 272.208 600.583 272.518 600.582L312.986 600.42Z" fill="#C1D8ED"/>
<path d="M358.622 213.514L320.923 208.531L315.94 246.234L353.639 251.218L358.622 213.514Z" fill="#0CBC8B"/>
<path d="M190.173 360.164C190.173 362.784 191.556 371.545 189.331 372.171C187.997 372.546 186.421 366.016 186.421 366.016" fill="#E98862"/>
<path d="M179.668 358.788C179.668 358.788 172.401 376.476 180.689 386.637C180.901 386.896 181.185 387.084 181.505 387.179C181.826 387.273 182.167 387.269 182.485 387.166C182.802 387.063 183.082 386.867 183.286 386.603C183.491 386.339 183.611 386.02 183.631 385.687C184.034 378.834 185.415 364.757 189.932 366.406V355.354" fill="#E98862"/>
<path d="M341.975 267.241C341.975 267.241 352.351 254.604 353.639 251.915C358.188 242.446 355.915 238.109 354.02 236.722C351.784 235.083 341.415 249.017 341.415 249.017C341.415 249.017 342.315 244.005 340.373 243.675C339.576 243.54 338.943 244.324 337.695 247.871C336.272 251.916 333.429 257.998 333.429 257.998L341.975 267.241Z" fill="#E98862"/>
<path d="M230.978 238.461C230.978 238.461 237.776 234.856 236.259 216.34L250.306 213.734C250.306 213.734 248.723 230.336 255.834 235.607L230.978 238.461Z" fill="#E98862"/>
<path d="M228.288 209.16C229.26 214.777 232.326 220.097 237.28 221.911C243.163 224.065 247.52 224.211 254.301 224.211C263.556 224.211 263.25 214.558 263.509 204.831C263.773 195.065 262.994 184.589 259.336 181.186C252.038 174.394 230.608 178.696 228.001 190.057C226.653 195.934 227.362 203.812 228.288 209.16Z" fill="#E98862"/>
<path d="M269.925 177.142C269.925 172.497 264.145 164.886 248.725 175.383L248.709 175.393C244.703 175.281 240.701 175.718 236.814 176.693C229.762 178.804 220.92 184.716 223.185 199.052C224.536 207.591 226.949 213.169 229.505 217.255C231.02 219.805 233.053 222.009 235.473 223.723C237.356 224.936 241.301 224.894 243.792 224.927C248.825 224.994 250.852 224.637 251.556 224.218C256.936 221.023 256.093 205.058 255.241 195.662C255.101 194.116 255.385 191.547 259.352 191.547C269.472 191.541 269.925 181.469 269.925 177.142Z" fill="#0F1011"/>
<path d="M260.338 206.676C260.406 207.389 260.332 208.108 260.12 208.792C259.908 209.475 259.563 210.11 259.103 210.659C258.644 211.208 258.08 211.66 257.445 211.989C256.809 212.318 256.114 212.518 255.401 212.576C254.687 212.634 253.97 212.55 253.289 212.329C252.608 212.107 251.979 211.752 251.436 211.285C250.894 210.818 250.45 210.248 250.13 209.608C249.81 208.967 249.62 208.27 249.572 207.556C249.502 206.846 249.575 206.13 249.787 205.45C249.999 204.769 250.346 204.138 250.807 203.595C251.268 203.051 251.834 202.606 252.471 202.285C253.108 201.965 253.802 201.776 254.514 201.73C258.363 201.608 260.094 203.702 260.338 206.676Z" fill="#E98862"/>
<path d="M332.83 253.833L302.813 287.607L279.336 245.578C277.114 238.938 272.052 234.489 261.73 234.047C258.2 233.895 240.973 233.871 228.362 233.871C219.888 233.871 212.932 236.471 208.916 240.489C206.892 242.483 205.378 244.935 204.501 247.637L204.38 247.593L184.198 302.478C183.972 303.094 183.809 303.731 183.712 304.38L175.568 359.266L194.532 362.08L202.533 308.169L210.684 286.004C211.533 289.411 211.997 292.902 212.066 296.413C212.066 314.879 203.713 323.161 204.329 332.638C205.296 347.539 277.685 344.018 281.374 335.554C285.171 326.826 277.464 321.448 277.801 292.897C277.838 289.79 278.078 286.539 278.409 283.23L292.653 308.732C293.399 310.067 294.453 311.205 295.728 312.05C297.003 312.895 298.462 313.422 299.983 313.588C301.503 313.754 303.041 313.553 304.468 313.003C305.896 312.453 307.17 311.569 308.186 310.425L347.653 264.258L332.83 253.833Z" fill="#367CFF"/>
<path d="M678.969 344.287C672.845 427.883 657.686 511.495 646.487 594.572L628.574 592.912C632.823 509.196 640.451 425.557 649.785 342.26L678.969 344.287Z" fill="#E98862"/>
<path d="M708.934 363.275C711.375 427.925 717.531 525.964 721.084 591.394L703.177 593.1C694.697 527.183 681.362 430.352 674.094 365.191L708.934 363.275Z" fill="#E98862"/>
<path d="M679.98 600.835C679.484 600.833 678.993 600.728 678.539 600.528C678.084 600.327 677.676 600.035 677.34 599.67C677.004 599.305 676.746 598.874 676.584 598.405C676.421 597.935 676.358 597.438 676.396 596.943C676.449 596.256 676.698 595.6 677.112 595.05C677.526 594.5 678.088 594.08 678.733 593.839L700.225 586.64C700.642 586.502 701.083 586.455 701.519 586.504C701.955 586.552 702.375 586.694 702.751 586.92C705.705 588.971 709.24 590.019 712.834 589.91C715.634 589.711 718.321 588.729 720.589 587.077C720.789 586.913 721.031 586.81 721.287 586.778C721.543 586.747 721.802 586.789 722.035 586.9C722.268 587.01 722.465 587.185 722.603 587.403C722.74 587.621 722.813 587.874 722.812 588.132V598.642C722.812 598.952 722.751 599.259 722.632 599.546C722.513 599.832 722.339 600.092 722.119 600.311C721.9 600.53 721.639 600.703 721.352 600.821C721.065 600.939 720.758 600.999 720.448 600.997L679.98 600.835Z" fill="#C1D8ED"/>
<path d="M606.355 600.835C605.858 600.833 605.367 600.728 604.913 600.528C604.459 600.327 604.051 600.035 603.715 599.67C603.378 599.305 603.121 598.874 602.958 598.405C602.796 597.935 602.732 597.438 602.771 596.943C602.824 596.256 603.073 595.599 603.487 595.05C603.901 594.5 604.464 594.08 605.109 593.839L626.6 586.64C627.016 586.502 627.458 586.455 627.894 586.504C628.33 586.552 628.75 586.694 629.126 586.92C632.08 588.971 635.615 590.019 639.209 589.91C642.009 589.711 644.696 588.729 646.965 587.077C647.164 586.913 647.406 586.81 647.662 586.778C647.918 586.747 648.178 586.789 648.411 586.9C648.644 587.01 648.84 587.185 648.978 587.403C649.115 587.621 649.188 587.874 649.187 588.132V598.642C649.187 598.952 649.126 599.26 649.007 599.546C648.888 599.832 648.714 600.092 648.494 600.311C648.274 600.53 648.014 600.703 647.727 600.821C647.44 600.939 647.133 600.999 646.823 600.997L606.355 600.835Z" fill="#C1D8ED"/>
<path d="M709.482 328.893C709.482 328.893 719.47 373.628 719.47 411.249C719.47 448.87 730.939 507.139 730.939 507.139C730.939 507.139 697.983 500.257 676.385 507.139C654.786 514.021 614.51 501.634 614.51 501.634L642.589 333.018L709.482 328.893Z" fill="#262626"/>
<path d="M766.208 226.753C762.001 229.539 754.356 234.239 750.048 234.705C751.213 233.111 752.675 230.836 751.982 230.302C750.146 228.895 743.969 235.261 741.871 236.833L742.315 236.801L738.171 239.909L747.073 246.065C747.073 246.065 765.581 241.265 768.737 228.537C768.818 228.213 768.798 227.871 768.682 227.558C768.565 227.244 768.356 226.973 768.083 226.78C767.81 226.587 767.484 226.481 767.15 226.477C766.815 226.472 766.487 226.568 766.208 226.753Z" fill="#E98862"/>
<path d="M585.933 234.775C590.141 237.561 597.785 242.26 602.094 242.727C600.929 241.132 599.466 238.858 600.164 238.324C601.999 236.917 608.177 243.283 610.275 244.855L609.831 244.823L613.975 247.931L605.073 254.087C605.073 254.087 586.565 249.288 583.409 236.56C583.329 236.236 583.348 235.895 583.465 235.582C583.581 235.269 583.789 234.999 584.062 234.806C584.335 234.613 584.659 234.507 584.993 234.502C585.327 234.496 585.654 234.591 585.933 234.775Z" fill="#E98862"/>
<path d="M689.221 237.42C689.221 237.42 682.15 234.383 682.15 215.803L667.934 214.356C667.934 214.356 670.864 230.772 664.211 236.604L689.221 237.42Z" fill="#E98862"/>
<path d="M689.505 207.996C688.994 213.675 686.374 219.228 681.584 221.441C676.376 224.019 670.617 225.283 664.808 225.124C649.378 225.124 649.553 190.022 656.275 182.655C662.997 175.289 684.703 177.824 688.229 188.935C690.053 194.681 689.991 202.592 689.505 207.996Z" fill="#E98862"/>
<path d="M703.475 185.811C703.477 183.4 702.771 181.041 701.443 179.028C700.116 177.014 698.226 175.435 696.009 174.487C693.792 173.539 691.346 173.263 688.973 173.693C686.6 174.124 684.407 175.242 682.664 176.909C680.834 175.96 678.861 175.314 676.823 174.995C649.118 171.142 648.146 196.16 648.146 196.16C651.527 196.699 654.948 196.955 658.373 196.923C664.188 221.86 669.829 228.462 683.361 223.216C686.569 221.974 694.253 214.352 695.023 198.137C695.033 197.92 695.032 197.71 695.037 197.496C697.493 196.683 699.63 195.116 701.145 193.018C702.659 190.921 703.475 188.399 703.475 185.811Z" fill="#0F1011"/>
<path d="M657.132 209.619C657.123 210.334 657.256 211.044 657.523 211.707C657.79 212.37 658.187 212.974 658.689 213.483C659.192 213.992 659.79 214.396 660.45 214.672C661.11 214.948 661.818 215.09 662.533 215.09C663.248 215.09 663.956 214.948 664.616 214.672C665.276 214.396 665.874 213.992 666.377 213.483C666.879 212.974 667.275 212.37 667.543 211.707C667.81 211.044 667.943 210.334 667.934 209.619C667.946 208.906 667.815 208.198 667.548 207.537C667.28 206.877 666.883 206.276 666.379 205.772C665.875 205.268 665.275 204.871 664.614 204.604C663.954 204.337 663.246 204.205 662.533 204.218C658.687 204.407 657.132 206.636 657.132 209.619Z" fill="#E98862"/>
<path d="M737.624 238.468L726.401 274.515L715.959 252.015C715.558 247.811 713.7 243.88 710.708 240.901C706.692 236.884 699.735 234.284 691.262 234.284C678.65 234.284 661.424 234.311 657.893 234.46C647.88 234.889 642.816 239.086 640.492 245.398L624.137 277.195L614.229 246.297L595.973 252.152L612.943 305.09C613.522 306.896 614.623 308.49 616.108 309.669C617.592 310.849 619.393 311.562 621.283 311.717C621.547 311.739 621.811 311.75 622.074 311.75C623.836 311.75 625.563 311.264 627.066 310.346C628.569 309.429 629.791 308.115 630.596 306.548L641.397 285.552C641.632 288.202 641.795 290.804 641.825 293.311C642.162 321.863 634.454 327.241 638.252 335.969C641.94 344.433 714.33 347.954 715.297 333.053C715.913 323.576 707.559 315.298 707.559 296.827C707.687 292.421 708.366 288.049 709.582 283.812L719.468 305.126C720.237 306.784 721.464 308.187 723.004 309.171C724.544 310.155 726.333 310.677 728.16 310.678C728.372 310.678 728.584 310.671 728.798 310.656C730.73 310.528 732.578 309.818 734.098 308.619C735.619 307.42 736.741 305.789 737.316 303.94L755.928 244.169L737.624 238.468Z" fill="#FF7035"/>
<path d="M334.307 46.6129L296.608 41.6291L291.625 79.3322L329.324 84.316L334.307 46.6129Z" fill="#0CBC8B"/>
<path d="M387.655 98.7117L350.031 104.235L355.554 141.863L393.178 136.34L387.655 98.7117Z" fill="#C1D8ED"/>
<path d="M555.101 41.5119L517.493 47.0264L523.007 84.6391L560.615 79.1246L555.101 41.5119Z" fill="#0CBC8B"/>
<path d="M499.105 120.801H460.362V157.269H499.105V120.801Z" fill="#0CBC8B"/>
<path d="M717.365 47.956L680.046 40.6531L672.744 77.9764L710.063 85.2794L717.365 47.956Z" fill="#C1D8ED"/>
<path d="M649.129 98.7129L611.505 104.236L617.028 141.864L654.652 136.341L649.129 98.7129Z" fill="#C1D8ED"/>
<path d="M559.512 179.998L521.568 177.484L519.055 215.432L556.998 217.946L559.512 179.998Z" fill="white"/>
<path d="M850.903 564.598H833.325V600.999H850.903V564.598Z" fill="#C1D8ED"/>
<path d="M961.248 564.598H943.67V600.999H961.248V564.598Z" fill="#C1D8ED"/>
<path d="M977.361 410.386H817.212V589.26H977.361V410.386Z" fill="#C1D8ED"/>
<path d="M934.828 410.386H774.679V589.26H934.828V410.386Z" fill="#DEE8F5"/>
<path d="M808.37 564.598H790.793V600.999H808.37V564.598Z" fill="#DEE8F5"/>
<path d="M918.715 564.598H901.138V600.999H918.715V564.598Z" fill="#DEE8F5"/>
<g opacity="0.53">
<path d="M926.212 421.445H783.295V466.812H926.212V421.445Z" fill="#F3F5FD"/>
</g>
<g opacity="0.53">
<path d="M926.212 477.917H783.295V523.284H926.212V477.917Z" fill="#F3F5FD"/>
</g>
<g opacity="0.53">
<path d="M926.212 534.388H783.295V579.754H926.212V534.388Z" fill="#F3F5FD"/>
</g>
<path d="M854.753 450.478C858.259 450.478 861.101 447.636 861.101 444.13C861.101 440.624 858.259 437.782 854.753 437.782C851.248 437.782 848.406 440.624 848.406 444.13C848.406 447.636 851.248 450.478 854.753 450.478Z" fill="white"/>
<path d="M854.753 506.949C858.259 506.949 861.101 504.107 861.101 500.601C861.101 497.095 858.259 494.253 854.753 494.253C851.248 494.253 848.406 497.095 848.406 500.601C848.406 504.107 851.248 506.949 854.753 506.949Z" fill="white"/>
<path d="M854.753 563.42C858.259 563.42 861.101 560.578 861.101 557.072C861.101 553.566 858.259 550.724 854.753 550.724C851.248 550.724 848.406 553.566 848.406 557.072C848.406 560.578 851.248 563.42 854.753 563.42Z" fill="white"/>
<path d="M851.079 342.785L840.378 345.318L853.781 402.071L864.481 399.538L851.079 342.785Z" fill="#F0F6FF"/>
<path d="M862.845 338.386L853.667 388.198L859.607 389.295L868.785 339.483L862.845 338.386Z" fill="#C1D8ED"/>
<path d="M862.858 338.372L861.813 343.866L867.747 344.996L868.792 339.502L862.858 338.372Z" fill="#DEE8F5"/>
<path d="M844.461 351.038L841.161 352.338L860.413 401.211L863.712 399.911L844.461 351.038Z" fill="#0CBC8B"/>
<path d="M869.264 372.43H840.244V409.523H869.264V372.43Z" fill="#C1D8ED"/>
<path d="M857.46 114.3C872.127 114.3 884.017 102.409 884.017 87.7402C884.017 73.0717 872.127 61.1805 857.46 61.1805C842.794 61.1805 830.904 73.0717 830.904 87.7402C830.904 102.409 842.794 114.3 857.46 114.3Z" fill="#C1D8ED"/>
<path d="M852.048 114.3C866.715 114.3 878.604 102.409 878.604 87.7402C878.604 73.0717 866.715 61.1805 852.048 61.1805C837.381 61.1805 825.491 73.0717 825.491 87.7402C825.491 102.409 837.381 114.3 852.048 114.3Z" fill="#DEE8F5"/>
<path d="M852.048 110.387C864.554 110.387 874.692 100.248 874.692 87.7402C874.692 75.2329 864.554 65.0938 852.048 65.0938C839.542 65.0938 829.404 75.2329 829.404 87.7402C829.404 100.248 839.542 110.387 852.048 110.387Z" fill="#F3F5FD"/>
<path d="M852.048 90.0477C851.878 90.0478 851.709 90.0144 851.552 89.9494C851.395 89.8843 851.252 89.7889 851.131 89.6686C851.011 89.5483 850.915 89.4055 850.85 89.2483C850.785 89.0911 850.752 88.9226 850.752 88.7524V72.0144C850.752 71.6706 850.888 71.3409 851.131 71.0979C851.374 70.8548 851.704 70.7182 852.048 70.7182C852.391 70.7182 852.721 70.8548 852.964 71.0979C853.207 71.3409 853.344 71.6706 853.344 72.0144V86.5302L862.338 81.4729C862.486 81.3895 862.65 81.3361 862.819 81.3158C862.988 81.2955 863.159 81.3087 863.323 81.3546C863.487 81.4006 863.64 81.4784 863.774 81.5835C863.908 81.6887 864.02 81.8192 864.103 81.9676C864.186 82.116 864.24 82.2794 864.26 82.4484C864.28 82.6174 864.267 82.7888 864.221 82.9527C864.175 83.1166 864.098 83.2699 863.992 83.4038C863.887 83.5376 863.757 83.6495 863.608 83.7329L852.683 89.8762C852.49 89.987 852.271 90.0461 852.048 90.0477Z" fill="#DEE8F5"/>
<path d="M162.592 528.146V542.444V600.999H87.6168V542.444V528.146H162.592Z" fill="#C1D8ED"/>
<path d="M187.166 542.444H112.191V601H187.166V542.444Z" fill="#DEE8F5"/>
<path d="M187.166 542.444H112.191V546.834H187.166V542.444Z" fill="#C1D8ED"/>
<path d="M112.191 542.443H187.166V528.145H112.191V542.443Z" fill="#DEE8F5"/>
<path d="M141.54 562.996H157.817C158.865 562.996 159.715 562.146 159.715 561.098V556.103C159.715 555.054 158.865 554.204 157.817 554.204H141.54C140.492 554.204 139.642 555.054 139.642 556.103V561.098C139.642 562.146 140.492 562.996 141.54 562.996Z" fill="white"/>
</svg>
