<svg width="661" height="483" viewBox="0 0 661 483" fill="none" xmlns="http://www.w3.org/2000/svg">
<path d="M570.167 410.212L70.6842 394.975L206.952 71.512L589.371 154.569L589.223 156.495L570.167 410.212ZM77.2906 390.73L566.058 405.64L584.651 158.093L209.607 76.6364L77.2906 390.73Z" fill="#F3F5FD"/>
<path d="M350.061 271.592L206.491 75.3875L210.072 72.7609L351.472 265.999L586.059 154.324L587.965 158.338L350.061 271.592Z" fill="#F3F5FD"/>
<path d="M566.916 409.798L350.58 271.314L74.8941 394.881L73.0807 390.825L350.953 266.277L569.308 406.054L566.916 409.798Z" fill="#F3F5FD"/>
<path d="M208.281 148.148C249.144 148.148 282.269 114.984 282.269 74.0742C282.269 33.1641 249.144 0 208.281 0C167.419 0 134.294 33.1641 134.294 74.0742C134.294 114.984 167.419 148.148 208.281 148.148Z" fill="#DEE8F5"/>
<path d="M587.012 230.406C627.874 230.406 661 197.241 661 156.331C661 115.421 627.874 82.2572 587.012 82.2572C546.15 82.2572 513.024 115.421 513.024 156.331C513.024 197.241 546.15 230.406 587.012 230.406Z" fill="#DEE8F5"/>
<path d="M350.766 342.869C391.629 342.869 424.754 309.705 424.754 268.795C424.754 227.885 391.629 194.721 350.766 194.721C309.904 194.721 276.779 227.885 276.779 268.795C276.779 309.705 309.904 342.869 350.766 342.869Z" fill="#DEE8F5"/>
<path d="M73.9878 466.927C114.85 466.927 147.976 433.763 147.976 392.853C147.976 351.943 114.85 318.779 73.9878 318.779C33.1255 318.779 0 351.943 0 392.853C0 433.763 33.1255 466.927 73.9878 466.927Z" fill="#F3F5FD"/>
<path d="M568.112 482C608.974 482 642.1 448.836 642.1 407.926C642.1 367.016 608.974 333.852 568.112 333.852C527.25 333.852 494.124 367.016 494.124 407.926C494.124 448.836 527.25 482 568.112 482Z" fill="#DEE8F5"/>
<path d="M390.227 251.037C390.467 254 387.384 256.76 386.876 259.556C386.35 262.445 388.236 266.115 387.006 268.707C385.757 271.337 381.712 272.189 379.841 274.394C377.969 276.599 377.78 280.732 375.389 282.389C373.032 284.019 369.111 282.75 366.347 283.735C363.677 284.687 361.455 288.18 358.494 288.419C355.534 288.658 352.78 285.572 349.99 285.063C347.105 284.537 343.439 286.425 340.849 285.193C338.223 283.943 337.372 279.893 335.17 278.02C332.968 276.146 328.839 275.957 327.184 273.563C325.552 271.203 326.823 267.277 325.839 264.512C324.888 261.837 321.4 259.612 321.161 256.649C320.922 253.685 324.004 250.927 324.513 248.134C325.039 245.246 323.153 241.575 324.383 238.983C325.631 236.354 329.677 235.501 331.548 233.297C333.419 231.092 333.608 226.958 335.999 225.301C338.356 223.671 342.278 224.94 345.04 223.955C347.711 223.003 349.934 219.511 352.894 219.271C355.853 219.032 358.609 222.118 361.402 222.627C364.288 223.154 367.954 221.266 370.543 222.497C373.169 223.747 374.02 227.797 376.223 229.671C378.425 231.544 382.554 231.733 384.209 234.127C385.837 236.486 384.569 240.413 385.553 243.179C386.5 245.852 389.989 248.074 390.227 251.037Z" fill="#0F1011"/>
<path d="M342.627 285.88C342.627 285.88 348.867 282.575 347.489 265.568L360.379 263.187C360.379 263.187 358.917 278.432 365.432 283.278L342.627 285.88Z" fill="#E98862"/>
<g opacity="0.15">
<path d="M362.795 280.089L352.096 271.879L360.505 271.799C360.746 274.681 361.522 277.492 362.795 280.089V280.089Z" fill="black"/>
</g>
<path d="M340.183 258.968C341.071 264.128 343.882 269.016 348.422 270.686C353.375 272.659 358.735 273.389 364.034 272.812C378.142 271.667 375.381 239.549 368.688 233.304C361.996 227.06 342.335 230.993 339.934 241.425C338.694 246.82 339.338 254.056 340.183 258.968Z" fill="#E98862"/>
<path d="M360.368 255.011C361.014 255.011 361.537 254.487 361.537 253.841C361.537 253.195 361.014 252.672 360.368 252.672C359.723 252.672 359.2 253.195 359.2 253.841C359.2 254.487 359.723 255.011 360.368 255.011Z" fill="#0F1011"/>
<path d="M369.59 254.263C370.236 254.263 370.759 253.739 370.759 253.093C370.759 252.447 370.236 251.923 369.59 251.923C368.945 251.923 368.422 252.447 368.422 253.093C368.422 253.739 368.945 254.263 369.59 254.263Z" fill="#0F1011"/>
<path d="M371.618 250.601H371.611L368.515 250.559C368.443 250.558 368.372 250.543 368.306 250.514C368.239 250.486 368.179 250.445 368.129 250.393C368.078 250.341 368.039 250.28 368.012 250.213C367.985 250.146 367.972 250.074 367.973 250.002C367.973 249.929 367.988 249.858 368.016 249.791C368.044 249.724 368.085 249.664 368.137 249.614C368.189 249.563 368.25 249.523 368.318 249.497C368.385 249.471 368.457 249.458 368.529 249.46L371.626 249.501C371.768 249.507 371.902 249.568 372 249.672C372.099 249.775 372.153 249.912 372.152 250.055C372.151 250.197 372.095 250.334 371.995 250.436C371.896 250.538 371.761 250.597 371.618 250.601V250.601Z" fill="#0F1011"/>
<path d="M357.848 251.719C357.714 251.719 357.584 251.67 357.483 251.58C357.383 251.491 357.318 251.367 357.303 251.233C357.287 251.1 357.321 250.965 357.398 250.854C357.475 250.744 357.59 250.666 357.721 250.634L360.775 249.902C360.845 249.883 360.919 249.879 360.991 249.89C361.064 249.9 361.133 249.925 361.196 249.962C361.259 250 361.313 250.05 361.356 250.109C361.4 250.168 361.431 250.235 361.448 250.306C361.465 250.377 361.467 250.451 361.455 250.523C361.443 250.595 361.417 250.664 361.378 250.726C361.339 250.788 361.289 250.842 361.229 250.884C361.169 250.926 361.101 250.955 361.03 250.971L357.977 251.703C357.935 251.714 357.892 251.719 357.848 251.719V251.719Z" fill="#0F1011"/>
<path d="M360.901 263.057C360.901 263.057 365.215 263.517 368.24 262.465C368.24 262.465 368.214 265.31 364.8 265.587C361.385 265.864 360.901 263.057 360.901 263.057Z" fill="white"/>
<path d="M349.688 245.609C350.534 257.702 349.204 269.849 345.763 281.472C345.763 281.472 335.927 264.492 334.406 250.354C332.98 237.102 342.741 229.287 349.332 227.817C374.379 222.234 376.181 240.551 376.181 240.551C371.618 250.051 346.977 250.009 346.977 250.009" fill="#0F1011"/>
<path d="M354.463 258.88C354.528 260.168 354.089 261.431 353.239 262.401C352.39 263.371 351.197 263.972 349.912 264.076C348.628 264.181 347.353 263.78 346.359 262.96C345.365 262.139 344.729 260.963 344.585 259.681C344.521 259.03 344.589 258.372 344.784 257.747C344.98 257.123 345.298 256.544 345.722 256.045C346.145 255.546 346.665 255.138 347.249 254.844C347.833 254.551 348.471 254.378 349.123 254.336C352.655 254.223 354.241 256.149 354.463 258.88Z" fill="#E98862"/>
<g opacity="0.15">
<path d="M365.552 260.337C365.456 260.337 365.362 260.302 365.289 260.239C365.216 260.176 365.168 260.089 365.153 259.993C365.139 259.897 365.159 259.8 365.211 259.718C365.262 259.636 365.341 259.575 365.434 259.547L367.812 258.818L366.152 255.109C366.13 255.061 366.119 255.008 366.117 254.955C366.116 254.902 366.125 254.849 366.144 254.799C366.163 254.749 366.191 254.704 366.228 254.665C366.265 254.626 366.308 254.595 366.357 254.574C366.406 254.552 366.458 254.54 366.511 254.539C366.564 254.537 366.617 254.546 366.667 254.565C366.717 254.584 366.762 254.613 366.801 254.65C366.839 254.686 366.87 254.73 366.892 254.779L368.742 258.905C368.765 258.957 368.777 259.014 368.777 259.071C368.776 259.128 368.764 259.185 368.741 259.237C368.717 259.289 368.682 259.336 368.64 259.374C368.597 259.411 368.546 259.44 368.492 259.457L365.676 260.319C365.636 260.331 365.594 260.337 365.552 260.337Z" fill="black"/>
</g>
<path d="M245.187 138.291L240.792 126.81C240.866 131.256 241.229 135.693 241.879 140.091C232.017 145.109 221.159 147.855 210.099 148.128C199.04 148.401 188.059 146.194 177.962 141.669C179.634 136.486 180.48 131.071 180.47 125.625C180.433 123.032 180.141 120.449 179.597 117.914L172.561 138.958C167.155 135.971 162.144 132.318 157.645 128.084L173.945 79.3728L174.063 79.4172C174.895 77.4921 176.088 75.7445 177.577 74.2691C181.269 70.5802 187.632 68.2024 195.393 68.195C195.971 72.7209 223.442 72.7358 223.656 68.2987C224.699 68.3135 225.521 68.3283 226.024 68.3506C237.994 68.8691 242.257 75.2543 243.293 84.1654L259.792 127.247C255.4 131.52 250.494 135.23 245.187 138.291V138.291Z" fill="#9EBCEA"/>
<path d="M223.655 68.2964C223.445 72.7409 221.033 79.272 213.588 79.7646C203.666 80.4186 195.971 72.7223 195.387 68.192H195.411C205.183 68.192 217.96 68.2083 223.655 68.2964Z" fill="#E98862"/>
<path d="M197.407 72.6594C197.407 72.6594 203.645 69.349 202.251 52.3438L215.139 49.9512C215.139 49.9512 213.691 65.1971 220.211 70.0379L197.407 72.6594Z" fill="#E98862"/>
<g opacity="0.15">
<path d="M217.57 66.8505L206.864 58.6505L215.273 58.563C215.516 61.4447 216.295 64.2554 217.57 66.8505V66.8505Z" fill="black"/>
</g>
<path d="M194.939 45.7497C195.832 50.909 198.644 55.7949 203.19 57.4608C208.143 59.4295 213.503 60.1548 218.801 59.5734C232.909 58.4149 230.121 26.2993 223.42 20.0615C216.719 13.8237 197.065 17.7734 194.674 28.2097C193.44 33.6038 194.091 40.8393 194.939 45.7497Z" fill="#E98862"/>
<path d="M228.077 21.1704C227.656 20.5013 227.066 19.9552 226.367 19.5874C220.102 16.1763 208.492 14.9948 202.913 16.6667C196.444 18.6045 188.332 24.0349 190.413 37.2001C190.501 37.7541 190.595 38.2882 190.693 38.8127C188.65 38.4642 186.551 38.6853 184.625 39.4518C182.7 40.2182 181.022 41.5004 179.775 43.158C178.529 44.8155 177.762 46.7845 177.559 48.8492C177.356 50.9139 177.724 52.9948 178.624 54.8639C179.523 56.7331 180.919 58.3184 182.658 59.4462C184.398 60.574 186.414 61.2009 188.485 61.2582C190.557 61.3155 192.604 60.8009 194.403 59.7709C196.202 58.7409 197.683 57.2352 198.684 55.4186C199.644 56.2487 200.681 56.9851 201.78 57.6179C202.552 58.0771 202.742 57.7031 203.007 56.8445C203.942 53.8482 204.857 41.9949 204.128 33.3882L219.33 32.8623L221.978 25.3171L224.15 32.8623H229.329C230.016 28.7741 230.732 24.14 228.077 21.1704Z" fill="#0F1011"/>
<path d="M215.121 41.7756C215.766 41.7756 216.289 41.252 216.289 40.606C216.289 39.96 215.766 39.4364 215.121 39.4364C214.476 39.4364 213.953 39.96 213.953 40.606C213.953 41.252 214.476 41.7756 215.121 41.7756Z" fill="#0F1011"/>
<path d="M224.341 41.0186C224.987 41.0186 225.51 40.4949 225.51 39.849C225.51 39.203 224.987 38.6793 224.341 38.6793C223.696 38.6793 223.173 39.203 223.173 39.849C223.173 40.4949 223.696 41.0186 224.341 41.0186Z" fill="#0F1011"/>
<path d="M226.367 37.3549H226.36L223.264 37.3164C223.118 37.3144 222.979 37.2546 222.878 37.1502C222.776 37.0458 222.72 36.9052 222.722 36.7593C222.729 36.6156 222.791 36.4801 222.894 36.3796C222.997 36.2792 223.134 36.2212 223.277 36.2171L226.373 36.2556C226.519 36.2564 226.658 36.3151 226.76 36.4187C226.863 36.5223 226.92 36.6624 226.919 36.8082C226.918 36.954 226.86 37.0935 226.756 37.196C226.653 37.2985 226.513 37.3557 226.367 37.3549V37.3549Z" fill="#0F1011"/>
<path d="M212.597 38.4853C212.463 38.4856 212.332 38.4364 212.232 38.3469C212.131 38.2575 212.066 38.134 212.051 38.0001C212.035 37.8662 212.069 37.7312 212.146 37.6207C212.223 37.5101 212.338 37.4319 212.469 37.4008L215.522 36.6653C215.592 36.6483 215.665 36.6454 215.736 36.6566C215.807 36.6678 215.876 36.693 215.937 36.7306C215.999 36.7683 216.052 36.8177 216.095 36.8761C216.137 36.9345 216.168 37.0006 216.185 37.0708C216.201 37.141 216.204 37.2138 216.193 37.2851C216.182 37.3565 216.157 37.4249 216.119 37.4865C216.082 37.5481 216.032 37.6016 215.974 37.6441C215.916 37.6866 215.85 37.7172 215.779 37.7341L212.727 38.4704C212.684 38.4805 212.641 38.4855 212.597 38.4853V38.4853Z" fill="#0F1011"/>
<path d="M209.041 43.469C209.11 44.7595 208.674 46.0263 207.826 47.0001C206.977 47.9739 205.782 48.5779 204.496 48.6835C203.209 48.7892 201.932 48.3882 200.936 47.5659C199.941 46.7435 199.304 45.5647 199.163 44.2801C199.099 43.6286 199.166 42.9708 199.361 42.3458C199.555 41.7209 199.874 41.1416 200.297 40.6424C200.72 40.1432 201.239 39.7344 201.823 39.4403C202.407 39.1462 203.045 38.9728 203.697 38.9304C207.229 38.8149 208.816 40.7408 209.041 43.469Z" fill="#E98862"/>
<g opacity="0.15">
<path d="M220.309 47.0964C220.212 47.0964 220.119 47.0617 220.046 46.9986C219.973 46.9355 219.924 46.8482 219.91 46.7526C219.896 46.657 219.916 46.5594 219.968 46.4775C220.019 46.3957 220.098 46.3351 220.191 46.3067L222.568 45.5756L220.905 41.8682C220.883 41.8196 220.871 41.7671 220.869 41.7139C220.868 41.6606 220.877 41.6076 220.896 41.5578C220.915 41.5081 220.944 41.4625 220.98 41.4238C221.017 41.3851 221.061 41.354 221.109 41.3323C221.158 41.3105 221.21 41.2986 221.263 41.2971C221.316 41.2956 221.369 41.3047 221.419 41.3237C221.469 41.3427 221.514 41.3714 221.553 41.408C221.592 41.4446 221.623 41.4885 221.644 41.5371L223.494 45.6623C223.518 45.7145 223.53 45.7711 223.53 45.8283C223.53 45.8856 223.517 45.9421 223.494 45.9943C223.47 46.0464 223.436 46.0929 223.393 46.1307C223.35 46.1685 223.299 46.1967 223.245 46.2134L220.433 47.0786C220.393 47.0908 220.351 47.0968 220.309 47.0964V47.0964Z" fill="black"/>
</g>
<path d="M215.661 49.8216C215.661 49.8216 219.976 50.2771 223 49.2193C223 49.2193 222.976 52.0638 219.562 52.3445C216.147 52.6253 215.661 49.8216 215.661 49.8216Z" fill="white"/>
<path d="M603.554 164.054C603.554 164.054 597.316 160.742 598.709 143.738L585.822 141.345C585.822 141.345 587.27 156.591 580.75 161.432L603.554 164.054Z" fill="#E98862"/>
<g opacity="0.15">
<path d="M583.394 158.245L594.1 150.045L585.691 149.957C585.447 152.839 584.668 155.65 583.394 158.245V158.245Z" fill="black"/>
</g>
<path d="M606.021 137.144C605.129 142.303 602.317 147.188 597.771 148.855C592.817 150.824 587.457 151.549 582.159 150.968C568.051 149.809 570.839 117.694 577.54 111.455C584.241 105.216 603.896 109.168 606.287 119.603C607.52 124.998 606.87 132.234 606.021 137.144Z" fill="#E98862"/>
<path d="M567.669 108.474C567.669 104.208 572.972 97.2187 587.118 106.857L587.132 106.866C590.807 106.764 594.479 107.166 598.045 108.061C600.6 108.8 602.987 110.029 605.074 111.679V111.679C609.011 114.877 611.881 120.138 610.544 128.594C608.221 143.288 602.209 147.209 599.179 149.011C598.407 149.471 598.217 149.097 597.952 148.239C597.112 145.066 596.511 141.835 596.154 138.573C595.693 135.177 592.649 133.024 593.017 128.962C593.146 127.542 595.43 122.337 588.362 122.28C584.386 122.248 585.872 122.406 581.629 122.406C581.024 122.406 580.49 122.379 580.001 122.332H579.996C565.346 122.337 567.669 112.741 567.669 108.474Z" fill="#0F1011"/>
<path d="M591.92 134.863C591.851 136.154 592.287 137.42 593.135 138.394C593.984 139.367 595.179 139.971 596.465 140.076C597.751 140.182 599.028 139.781 600.024 138.959C601.02 138.137 601.656 136.958 601.797 135.674C601.862 135.022 601.795 134.364 601.6 133.74C601.405 133.115 601.087 132.535 600.663 132.036C600.24 131.537 599.721 131.128 599.137 130.834C598.553 130.54 597.916 130.367 597.263 130.325C593.732 130.209 592.144 132.133 591.92 134.863Z" fill="#E98862"/>
<path d="M594.097 119.126L597.746 120.464C597.746 120.464 596.452 138.714 595.431 143.702C594.41 148.691 591.553 151.94 588.315 152.221C583.344 152.648 579.741 152.682 576.095 151.377C571.982 149.905 572.559 138.858 572.559 138.858C572.559 138.858 585.791 140.294 589.453 138.533C593.115 136.772 594.097 119.126 594.097 119.126Z" fill="#0F1011"/>
<path d="M585.84 133.169C586.485 133.169 587.008 132.645 587.008 131.999C587.008 131.354 586.485 130.83 585.84 130.83C585.194 130.83 584.671 131.354 584.671 131.999C584.671 132.645 585.194 133.169 585.84 133.169Z" fill="#0F1011"/>
<path d="M576.619 132.412C577.264 132.412 577.787 131.888 577.787 131.242C577.787 130.596 577.264 130.073 576.619 130.073C575.974 130.073 575.451 130.596 575.451 131.242C575.451 131.888 575.974 132.412 576.619 132.412Z" fill="#0F1011"/>
<path d="M574.593 128.749C574.448 128.75 574.308 128.693 574.204 128.591C574.101 128.488 574.042 128.349 574.041 128.203C574.04 128.057 574.097 127.917 574.199 127.813C574.301 127.71 574.44 127.651 574.586 127.65L577.683 127.611H577.691C577.836 127.61 577.976 127.667 578.08 127.769C578.183 127.872 578.242 128.011 578.243 128.157C578.244 128.303 578.187 128.443 578.084 128.546C577.982 128.65 577.843 128.709 577.697 128.71L574.601 128.749H574.593Z" fill="#0F1011"/>
<path d="M588.363 129.879C588.319 129.879 588.276 129.874 588.234 129.864L585.181 129.128C585.039 129.094 584.917 129.005 584.841 128.881C584.765 128.757 584.742 128.607 584.776 128.465C584.81 128.324 584.899 128.201 585.023 128.125C585.147 128.049 585.296 128.025 585.438 128.059L588.491 128.795C588.621 128.827 588.735 128.905 588.812 129.015C588.888 129.126 588.922 129.26 588.906 129.394C588.89 129.527 588.826 129.65 588.726 129.739C588.626 129.829 588.497 129.878 588.363 129.879V129.879Z" fill="#0F1011"/>
<g opacity="0.15">
<path d="M580.652 138.49C580.748 138.49 580.841 138.455 580.915 138.392C580.988 138.329 581.036 138.242 581.05 138.146C581.065 138.05 581.044 137.953 580.993 137.871C580.941 137.789 580.862 137.729 580.77 137.7L578.393 136.969L580.055 133.265C580.095 133.168 580.096 133.06 580.057 132.962C580.018 132.865 579.943 132.786 579.847 132.743C579.752 132.7 579.643 132.696 579.545 132.732C579.446 132.768 579.366 132.841 579.32 132.935L577.47 137.06C577.447 137.112 577.434 137.169 577.434 137.226C577.434 137.283 577.447 137.34 577.47 137.392C577.494 137.444 577.528 137.491 577.571 137.529C577.614 137.566 577.665 137.595 577.719 137.611L580.531 138.476C580.57 138.487 580.611 138.492 580.652 138.49V138.49Z" fill="black"/>
</g>
<path d="M585.299 141.216C585.299 141.216 580.984 141.671 577.961 140.613C577.961 140.613 577.984 143.458 581.399 143.738C584.813 144.018 585.299 141.216 585.299 141.216Z" fill="white"/>
<path d="M639.933 208.084C635.561 212.574 630.636 216.49 625.277 219.736L621.592 208.714C621.048 211.246 620.756 213.827 620.72 216.417C620.718 218.325 620.819 220.232 621.023 222.129C611.658 226.97 601.37 229.756 590.844 230.303C580.319 230.85 569.798 229.144 559.983 225.299C560.19 222.988 560.337 220.432 560.397 217.603L557.793 224.403C552.314 222.047 547.143 219.03 542.395 215.417L557.897 174.951C558.932 166.047 563.194 159.662 575.158 159.143C575.668 159.121 576.482 159.106 577.533 159.091C577.74 163.528 605.219 163.514 605.796 158.988C613.558 158.995 619.92 161.373 623.605 165.069C625.098 166.539 626.292 168.285 627.12 170.21L627.245 170.165L639.933 208.084Z" fill="#8DDBE0"/>
<path d="M577.532 159.09C577.742 163.534 580.154 170.065 587.599 170.558C597.521 171.212 605.216 163.516 605.8 158.985H605.776C596.004 158.985 583.227 159.001 577.532 159.09Z" fill="#E98862"/>
<path d="M593.727 374.981C593.851 362.973 589.111 355.532 582.683 351.446C576.342 347.415 556.455 343.906 548.915 358.541C543.995 368.09 545.937 371.504 544.544 386.799C543.151 402.095 537.796 403.699 532.366 422.238C528.107 436.78 551.964 444.5 572.627 443.833C593.29 443.165 606.385 438.587 607.584 425.43C609.304 406.55 593.485 398.513 593.727 374.981Z" fill="#0F1011"/>
<path d="M581.417 408.181C581.417 408.181 575.211 404.812 576.755 387.821L563.891 385.311C563.891 385.311 565.199 400.57 558.638 405.35L581.417 408.181Z" fill="#E98862"/>
<g opacity="0.15">
<path d="M561.308 402.187L572.089 394.085L563.681 393.921C563.411 396.8 562.606 399.603 561.308 402.187Z" fill="black"/>
</g>
<path d="M584.133 381.295C583.195 386.446 580.338 391.305 575.777 392.929C570.805 394.853 565.437 395.529 560.144 394.898C546.047 393.611 549.131 361.522 555.886 355.343C562.642 349.164 582.262 353.297 584.557 363.752C585.741 369.163 585.025 376.392 584.133 381.295Z" fill="#E98862"/>
<path d="M563.998 377.135C564.643 377.135 565.166 376.612 565.166 375.966C565.166 375.32 564.643 374.796 563.998 374.796C563.352 374.796 562.829 375.32 562.829 375.966C562.829 376.612 563.352 377.135 563.998 377.135Z" fill="#0F1011"/>
<path d="M554.784 376.293C555.429 376.293 555.952 375.77 555.952 375.124C555.952 374.478 555.429 373.954 554.784 373.954C554.139 373.954 553.616 374.478 553.616 375.124C553.616 375.77 554.139 376.293 554.784 376.293Z" fill="#0F1011"/>
<path d="M552.786 372.612C552.641 372.612 552.501 372.554 552.398 372.451C552.295 372.348 552.237 372.208 552.237 372.062C552.237 371.916 552.295 371.777 552.398 371.673C552.501 371.57 552.641 371.512 552.786 371.512L555.883 371.501C556.026 371.507 556.16 371.567 556.259 371.669C556.358 371.772 556.413 371.909 556.413 372.051C556.413 372.194 556.358 372.331 556.259 372.433C556.16 372.536 556.026 372.596 555.883 372.601L552.786 372.612V372.612Z" fill="#0F1011"/>
<path d="M566.545 373.868C566.5 373.868 566.454 373.863 566.41 373.852L563.364 373.089C563.223 373.053 563.102 372.963 563.027 372.838C562.952 372.713 562.93 372.563 562.966 372.421C563.001 372.28 563.091 372.158 563.216 372.083C563.341 372.009 563.491 371.987 563.632 372.022L566.678 372.785C566.808 372.817 566.922 372.896 566.998 373.007C567.074 373.118 567.107 373.252 567.09 373.386C567.074 373.519 567.01 373.641 566.909 373.73C566.809 373.819 566.679 373.868 566.545 373.868V373.868Z" fill="#0F1011"/>
<path d="M563.372 385.176C563.372 385.176 559.054 385.592 556.04 384.509C556.04 384.509 556.04 387.354 559.449 387.666C562.858 387.978 563.372 385.176 563.372 385.176Z" fill="white"/>
<path d="M574.761 367.841C575.068 391.143 577.311 400.195 577.311 400.195C577.311 400.195 588.332 386.861 589.994 372.741C591.554 359.503 581.872 351.589 575.296 350.054C550.306 344.218 548.571 362.467 548.571 362.467C550.186 368.693 577.467 372.555 577.467 372.555" fill="#0F1011"/>
<path d="M569.854 381.063C569.773 381.723 569.825 382.392 570.007 383.031C570.19 383.671 570.498 384.267 570.915 384.784C571.332 385.302 571.849 385.73 572.434 386.044C573.02 386.358 573.662 386.551 574.323 386.611C574.985 386.671 575.652 386.598 576.284 386.396C576.917 386.193 577.502 385.865 578.006 385.432C578.509 384.999 578.921 384.468 579.215 383.873C579.51 383.277 579.683 382.628 579.722 381.964C579.793 381.314 579.732 380.655 579.543 380.029C579.354 379.402 579.041 378.82 578.622 378.317C578.204 377.814 577.689 377.4 577.108 377.101C576.526 376.801 575.891 376.622 575.239 376.573C571.707 376.426 570.102 378.335 569.854 381.063Z" fill="#E98862"/>
<g opacity="0.15">
<path d="M558.756 382.408C558.852 382.408 558.945 382.373 559.017 382.311C559.09 382.248 559.138 382.161 559.153 382.066C559.168 381.971 559.148 381.874 559.098 381.792C559.047 381.71 558.969 381.649 558.878 381.62L556.51 380.867L558.207 377.175C558.229 377.127 558.242 377.075 558.245 377.022C558.247 376.969 558.239 376.915 558.22 376.865C558.202 376.815 558.174 376.769 558.138 376.73C558.102 376.691 558.059 376.659 558.01 376.637C557.962 376.615 557.91 376.602 557.857 376.6C557.803 376.598 557.75 376.607 557.701 376.626C557.651 376.644 557.605 376.673 557.566 376.709C557.527 376.745 557.496 376.789 557.474 376.838L555.586 380.944C555.562 380.996 555.55 381.053 555.549 381.11C555.549 381.167 555.561 381.224 555.584 381.276C555.607 381.329 555.641 381.375 555.683 381.414C555.726 381.452 555.776 381.481 555.83 381.498L558.636 382.387C558.675 382.4 558.715 382.407 558.756 382.408Z" fill="black"/>
</g>
<path d="M599.523 453.736C598.979 456.272 598.686 458.854 598.65 461.447C598.637 465.897 599.202 470.329 600.329 474.633C590.521 479.369 579.792 481.884 568.903 481.999C558.015 482.114 547.235 479.827 537.329 475.299C537.922 471.102 538.255 466.871 538.327 462.633L534.081 473.714C528.709 470.923 523.699 467.483 519.165 463.47L535.827 419.981C536.855 411.077 541.117 404.692 553.088 404.173C553.599 404.151 554.413 404.136 555.463 404.114C555.67 408.558 583.149 408.544 583.727 404.01C591.488 404.018 597.851 406.403 601.535 410.092C603.027 411.565 604.22 413.313 605.05 415.24L605.176 415.195L620.306 460.425C615.894 464.831 610.942 468.659 605.568 471.818L599.523 453.736Z" fill="#367CFF"/>
<path d="M555.461 404.118C555.671 408.562 558.083 415.092 565.528 415.586C575.449 416.24 583.145 408.544 583.729 404.012H583.704C573.933 404.012 561.156 404.029 555.461 404.118Z" fill="#E98862"/>
<path d="M399.008 324.958C389.069 333.507 377.043 339.264 364.157 341.641C351.271 344.019 337.986 342.932 325.656 338.492C325.587 336.058 325.297 333.636 324.791 331.255L322.749 337.366C317.204 335.098 311.959 332.157 307.13 328.61L319.137 292.714L319.264 292.751C320.093 290.827 321.287 289.081 322.778 287.61C326.463 283.914 332.825 281.536 340.587 281.529C341.164 286.055 368.643 286.077 368.85 281.632C369.901 281.647 370.715 281.662 371.225 281.692C383.189 282.203 387.45 288.595 388.487 297.499L399.008 324.958Z" fill="#0CBC8B"/>
<path d="M368.851 281.63C368.64 286.075 366.228 292.605 358.783 293.097C348.862 293.752 341.167 286.055 340.582 281.525H340.606C350.378 281.527 363.155 281.543 368.851 281.63Z" fill="#E98862"/>
<path d="M60.2305 402.694C60.2305 402.694 66.4684 399.383 65.0752 382.378L77.9624 379.986C77.9624 379.986 76.5144 395.232 83.0342 400.072L60.2305 402.694Z" fill="#E98862"/>
<g opacity="0.15">
<path d="M80.3936 396.884L69.6876 388.685L78.0963 388.598C78.3397 391.479 79.1188 394.29 80.3936 396.884V396.884Z" fill="black"/>
</g>
<path d="M57.763 375.784C58.6553 380.944 61.4676 385.829 66.0134 387.495C71.4093 389.474 75.4098 389.607 81.6248 389.607C90.1149 389.607 89.8374 380.743 90.0727 371.81C90.3117 362.841 89.6 353.218 86.2439 350.095C79.5465 343.857 59.8887 347.808 57.4974 358.244C56.264 363.638 56.9144 370.873 57.763 375.784Z" fill="#E98862"/>
<path d="M95.9621 346.381C95.9621 342.115 90.6594 335.125 76.513 344.763L76.4982 344.772C72.8232 344.669 69.1515 345.071 65.5857 345.967C59.1162 347.905 51.0035 353.334 53.0848 366.5C55.4087 381.193 61.4202 385.115 64.45 386.918C65.2224 387.377 65.4119 387.003 65.6767 386.145C66.518 382.973 67.1198 379.742 67.4769 376.479C68.0052 373.304 68.2449 370.087 68.1931 366.868C68.1931 365.442 68.2012 360.244 75.2692 360.187C79.2446 360.154 77.7589 360.312 82.0021 360.312C82.6066 360.312 83.1415 360.284 83.6336 360.238H83.6387C98.2839 360.244 95.9621 350.646 95.9621 346.381Z" fill="#0F1011"/>
<path d="M77.9439 371.809C78.5891 371.809 79.1122 371.286 79.1122 370.64C79.1122 369.994 78.5891 369.47 77.9439 369.47C77.2987 369.47 76.7756 369.994 76.7756 370.64C76.7756 371.286 77.2987 371.809 77.9439 371.809Z" fill="#0F1011"/>
<path d="M87.165 371.052C87.8102 371.052 88.3332 370.529 88.3332 369.883C88.3332 369.237 87.8102 368.713 87.165 368.713C86.5198 368.713 85.9967 369.237 85.9967 369.883C85.9967 370.529 86.5198 371.052 87.165 371.052Z" fill="#0F1011"/>
<path d="M89.19 367.389H89.1841L86.0877 367.35C85.9421 367.349 85.8028 367.291 85.7005 367.187C85.5982 367.083 85.5412 366.943 85.5421 366.797C85.5429 366.651 85.6016 366.512 85.7052 366.41C85.8088 366.307 85.9488 366.25 86.0944 366.251H86.101L89.1967 366.289C89.3389 366.295 89.4733 366.357 89.5715 366.46C89.6697 366.563 89.7241 366.7 89.7232 366.843C89.7223 366.985 89.6663 367.122 89.5668 367.224C89.4674 367.326 89.3323 367.385 89.19 367.389V367.389Z" fill="#0F1011"/>
<path d="M75.4209 368.519C75.2868 368.519 75.1574 368.469 75.0573 368.38C74.9571 368.29 74.8931 368.167 74.8774 368.034C74.8616 367.901 74.8952 367.766 74.9718 367.656C75.0483 367.546 75.1626 367.467 75.2929 367.435L78.3456 366.7C78.4157 366.683 78.4885 366.68 78.5597 366.691C78.631 366.702 78.6993 366.728 78.7608 366.765C78.8223 366.803 78.8759 366.852 78.9183 366.911C78.9608 366.969 78.9913 367.035 79.0082 367.105C79.0251 367.176 79.028 367.248 79.0168 367.32C79.0056 367.391 78.9805 367.459 78.9429 367.521C78.9053 367.583 78.8559 367.636 78.7976 367.679C78.7393 367.721 78.6732 367.752 78.6031 367.769L75.5504 368.504C75.508 368.514 75.4645 368.519 75.4209 368.519Z" fill="#0F1011"/>
<path d="M71.8643 373.504C71.9369 374.163 71.8767 374.83 71.6872 375.466C71.4978 376.102 71.183 376.693 70.7613 377.205C70.3397 377.717 69.8199 378.139 69.2325 378.446C68.6452 378.753 68.0023 378.939 67.3418 378.994C66.6814 379.048 66.0168 378.969 65.3873 378.761C64.7579 378.554 64.1764 378.222 63.6771 377.786C63.1779 377.35 62.7711 376.818 62.4808 376.221C62.1905 375.625 62.0226 374.976 61.987 374.314C61.9225 373.662 61.9897 373.005 62.1845 372.38C62.3793 371.755 62.6977 371.176 63.1207 370.676C63.5438 370.177 64.0628 369.768 64.647 369.474C65.2311 369.18 65.8684 369.007 66.5209 368.964C70.0524 368.849 71.6401 370.772 71.8643 373.504Z" fill="#E98862"/>
<g opacity="0.15">
<path d="M83.1326 377.13C83.0361 377.13 82.9427 377.096 82.8695 377.032C82.7963 376.969 82.7482 376.882 82.7338 376.786C82.7195 376.691 82.7399 376.593 82.7914 376.511C82.8428 376.43 82.9219 376.369 83.0143 376.341L85.3915 375.61L83.7282 371.907C83.6844 371.809 83.6811 371.698 83.7191 371.597C83.7571 371.497 83.8334 371.416 83.931 371.372C84.0286 371.329 84.1396 371.325 84.2397 371.363C84.3397 371.401 84.4206 371.478 84.4644 371.575L86.3141 375.7C86.3376 375.752 86.3498 375.809 86.3497 375.866C86.3497 375.923 86.3375 375.98 86.3139 376.032C86.2903 376.084 86.2559 376.13 86.2129 376.168C86.17 376.206 86.1195 376.234 86.0648 376.251L83.2532 377.116C83.214 377.127 83.1733 377.132 83.1326 377.13V377.13Z" fill="black"/>
</g>
<path d="M78.4847 379.852C78.4847 379.852 82.7997 380.308 85.8236 379.25C85.8236 379.25 85.7999 382.095 82.3854 382.375C78.9708 382.655 78.4847 379.852 78.4847 379.852Z" fill="white"/>
<path d="M104.381 460.41L103.027 456.885C103.057 458.307 103.109 459.655 103.183 460.936C93.5716 465.056 83.1992 467.095 72.7458 466.918C62.2925 466.742 51.9945 464.355 42.5274 459.914C42.6377 458.573 42.6976 457.173 42.6976 455.699C42.6602 453.107 42.3703 450.524 41.8319 447.988L38.5247 457.877C33.114 454.916 28.0953 451.288 23.5858 447.077L36.1719 409.447L36.2977 409.492C37.1291 407.566 38.3222 405.819 39.8121 404.344C43.4967 400.655 49.8596 398.277 57.6202 398.27C58.2047 402.796 85.6771 402.81 85.8835 398.373C86.9341 398.388 87.748 398.403 88.2585 398.425C100.23 398.944 104.491 405.329 105.52 414.233L119.659 451.136C114.959 454.834 109.829 457.948 104.381 460.41V460.41Z" fill="#262626"/>
<path d="M85.8865 398.371C85.6771 402.815 83.2651 409.347 75.8197 409.839C65.8979 410.493 58.2025 402.797 57.6187 398.267H57.6431C67.4147 398.267 80.1916 398.282 85.8865 398.371Z" fill="#E98862"/>
</svg>
