<svg width="947" height="651" viewBox="0 0 947 651" fill="none" xmlns="http://www.w3.org/2000/svg">
<path d="M947 650.864H0C10.3762 624.434 29.5393 602.013 56.5525 595.362C96.0693 585.645 137.888 612.365 177.316 602.317C199.717 596.614 217.352 580 235.883 566.198C305.798 514.142 401.597 498.755 484.326 526.311C527.567 540.706 566.969 565.883 611.266 576.581C668.547 590.426 728.448 578.944 787.353 577.052C844.722 575.216 926.92 598.564 947 650.864Z" fill="#F3F5FD"/>
<path d="M792.97 453.701C786.202 474.178 762.845 492.375 769.823 507.435C772.478 513.159 775.142 519.147 776.369 525.262C777.165 528.908 777.297 532.668 776.76 536.361C774.243 552.309 759.302 562.901 745.408 571.149C744.552 571.656 743.685 572.174 742.818 572.691C729.653 580.57 715.865 589.642 711.635 604.184C709.288 612.263 710.324 620.902 709.351 629.256C708.43 636.934 705.819 644.312 701.706 650.864H612.981C605.103 642.193 605.759 627.619 611.754 617.396C618.172 606.455 629.011 599.02 638.792 590.93C647.24 583.939 655.477 575.522 658.702 565.256C659.215 563.632 659.593 561.968 659.834 560.282C660.616 554.727 660.193 526.35 669.837 508.882C684.746 481.909 708.928 488.552 716.319 473.333C719.153 467.504 721.596 395.868 768.703 409.101C773.296 410.329 777.591 412.477 781.326 415.416C785.061 418.354 788.159 422.021 790.429 426.194C792.699 430.367 794.096 434.957 794.532 439.686C794.969 444.415 794.438 449.183 792.97 453.701Z" fill="#C1D8ED"/>
<path d="M879.137 565.709C877.784 566.639 876.329 567.412 874.801 568.012C862.091 572.775 826.743 572.247 821.572 584.783C819.14 590.676 818.559 597.181 816.476 603.212C811.749 616.888 799.272 627.143 785.314 630.997C780.292 632.381 775.089 633.025 770.12 634.567C760.518 637.556 752.567 643.565 745.577 650.863H630.988C630.937 643.273 632.806 635.793 636.422 629.117C640.038 622.441 645.283 616.785 651.67 612.674C664.412 604.648 680.506 603.148 693.015 594.763C701.262 589.229 707.194 581.234 711.9 572.395C714.893 566.612 717.538 560.655 719.819 554.557C723.319 545.485 726.978 535.748 734.929 530.129C738.829 527.599 743.152 525.789 747.692 524.786C759.175 521.786 768.005 523.55 776.369 525.261C786.52 527.331 795.994 529.306 808.714 522.557C831.279 510.581 864.27 450.859 897.239 507.603C910.457 530.362 892.217 556.965 879.137 565.709Z" fill="#8DDBE0"/>
<path d="M160.506 453.701C167.273 474.178 190.631 492.375 183.652 507.435C180.998 513.159 178.333 519.147 177.107 525.262C176.311 528.908 176.178 532.668 176.716 536.361C179.232 552.309 194.173 562.901 208.067 571.149C208.924 571.656 209.791 572.174 210.658 572.691C223.822 580.57 237.611 589.642 241.84 604.184C244.188 612.263 243.151 620.902 244.124 629.256C245.046 636.934 247.657 644.312 251.769 650.864H340.495C348.373 642.193 347.717 627.619 341.722 617.396C335.303 606.455 324.465 599.02 314.684 590.93C306.235 583.939 297.998 575.522 294.773 565.256C294.261 563.632 293.882 561.968 293.642 560.282C292.859 554.727 293.282 526.35 283.639 508.882C268.73 481.909 244.547 488.552 237.156 473.333C234.322 467.504 231.88 395.868 184.773 409.101C180.18 410.329 175.884 412.477 172.149 415.416C168.414 418.354 165.317 422.021 163.047 426.194C160.776 430.367 159.38 434.957 158.943 439.686C158.506 444.415 159.038 449.183 160.506 453.701Z" fill="#C1D8ED"/>
<path d="M74.3347 565.709C75.6872 566.639 77.1418 567.412 78.67 568.012C91.3798 572.775 126.728 572.247 131.899 584.783C134.331 590.676 134.913 597.181 136.996 603.212C141.722 616.888 154.199 627.143 168.157 630.997C173.18 632.381 178.382 633.025 183.352 634.567C192.953 637.556 200.904 643.565 207.894 650.863H322.483C322.534 643.273 320.665 635.793 317.049 629.117C313.434 622.441 308.189 616.785 301.801 612.674C289.059 604.648 272.966 603.148 260.457 594.763C252.209 589.229 246.277 581.234 241.572 572.395C238.578 566.612 235.934 560.655 233.652 554.557C230.152 545.485 226.493 535.748 218.542 530.129C214.643 527.599 210.32 525.789 205.779 524.786C194.296 521.786 185.467 523.55 177.103 525.261C166.952 527.331 157.477 529.306 144.757 522.557C122.192 510.581 89.2016 450.859 56.2321 507.603C43.019 530.362 61.259 556.965 74.3347 565.709Z" fill="#8DDBE0"/>
<path d="M609.696 9.31799H350.213C330.343 9.31799 314.235 25.4066 314.235 45.2528V605.746C314.235 625.592 330.343 641.681 350.213 641.681H609.696C629.567 641.681 645.675 625.592 645.675 605.746V45.2528C645.675 25.4066 629.567 9.31799 609.696 9.31799Z" fill="white"/>
<path d="M609.697 651H350.213C338.201 650.985 326.685 646.213 318.192 637.729C309.698 629.246 304.92 617.743 304.906 605.746V45.2539C304.92 33.2565 309.698 21.7544 318.192 13.2707C326.685 4.78707 338.201 0.0145342 350.213 0L609.697 0C621.709 0.0145342 633.225 4.78707 641.719 13.2707C650.213 21.7544 654.991 33.2565 655.005 45.2539V605.746C654.991 617.743 650.213 629.246 641.719 637.729C633.225 646.213 621.709 650.985 609.697 651ZM350.213 18.637C343.148 18.6443 336.373 21.4508 331.377 26.4408C326.38 31.4308 323.57 38.1967 323.562 45.2539V605.746C323.571 612.802 326.381 619.566 331.376 624.555C336.371 629.544 343.144 632.351 350.208 632.36H609.692C616.756 632.351 623.529 629.544 628.524 624.555C633.52 619.566 636.33 612.802 636.338 605.746V45.2539C636.33 38.1981 633.52 31.4339 628.524 26.4447C623.529 21.4555 616.756 18.6488 609.692 18.6402L350.213 18.637Z" fill="#DEE8F5"/>
<path d="M423.14 9.31799H536.77V31.3387C536.77 33.5032 536.343 35.6465 535.514 37.6462C534.685 39.6459 533.469 41.4628 531.937 42.9933C530.404 44.5237 528.585 45.7377 526.583 46.5659C524.58 47.3942 522.434 47.8204 520.267 47.8202H439.641C435.264 47.8202 431.067 46.0837 427.972 42.9926C424.877 39.9015 423.139 35.7091 423.139 31.3377V9.31799H423.14Z" fill="#DEE8F5"/>
<path d="M534.374 145.445C534.373 156.195 531.18 166.703 525.2 175.641C519.219 184.578 510.72 191.544 500.776 195.657C490.831 199.769 479.89 200.845 469.334 198.746C458.778 196.648 449.082 191.471 441.472 183.869C433.862 176.267 428.68 166.582 426.581 156.038C424.483 145.495 425.561 134.566 429.681 124.635C433.801 114.704 440.777 106.216 449.726 100.245C458.676 94.2732 469.198 91.0865 479.961 91.0875C487.115 91.0605 494.204 92.448 500.818 95.1703C507.433 97.8925 513.443 101.896 518.501 106.949C523.559 112.002 527.566 118.005 530.29 124.612C533.015 131.219 534.403 138.3 534.374 145.445Z" fill="#C1D8ED"/>
<path d="M479.955 151.045C491.855 151.045 501.502 141.411 501.502 129.525C501.502 117.64 491.855 108.005 479.955 108.005C468.056 108.005 458.409 117.64 458.409 129.525C458.409 141.411 468.056 151.045 479.955 151.045Z" fill="white"/>
<path d="M519.169 183.128C514.093 188.4 508.004 192.594 501.266 195.46C494.528 198.325 487.281 199.802 479.958 199.803C472.635 199.804 465.387 198.329 458.648 195.465C451.91 192.602 445.819 188.409 440.742 183.138C448.08 166.758 462.894 155.563 479.961 155.563C497.027 155.563 511.83 166.747 519.169 183.128Z" fill="white"/>
<path d="M594.606 238.985H365.303V288.947H594.606V238.985Z" fill="#0CBC8B"/>
<path d="M594.606 325.336H365.303V375.298H594.606V325.336Z" fill="#C1D8ED"/>
<path d="M756.519 212.753C756.519 212.753 748.017 209.106 748.017 186.793L730.924 185.054C730.924 185.054 734.446 204.77 726.447 211.773L756.519 212.753Z" fill="#E98862"/>
<path d="M756.866 177.416C756.253 184.237 753.101 190.905 747.341 193.563C741.079 196.66 734.153 198.179 727.168 197.987C708.612 197.987 708.821 155.83 716.905 146.977C724.989 138.125 751.093 141.176 755.333 154.519C757.523 161.426 757.448 170.926 756.866 177.416Z" fill="#E98862"/>
<path d="M729.947 174.401C730.793 174.401 731.479 173.716 731.479 172.871C731.479 172.026 730.793 171.341 729.947 171.341C729.101 171.341 728.415 172.026 728.415 172.871C728.415 173.716 729.101 174.401 729.947 174.401Z" fill="#367CFF"/>
<path d="M732.959 169.84C732.921 169.84 732.884 169.837 732.847 169.831L728.78 169.198C728.684 169.186 728.591 169.156 728.507 169.108C728.423 169.06 728.35 168.995 728.291 168.918C728.233 168.841 728.191 168.753 728.167 168.66C728.143 168.566 728.139 168.469 728.153 168.373C728.168 168.278 728.202 168.186 728.253 168.104C728.304 168.022 728.371 167.951 728.45 167.896C728.53 167.84 728.619 167.801 728.714 167.78C728.808 167.76 728.906 167.759 729.001 167.777L733.067 168.411C733.246 168.439 733.408 168.533 733.521 168.674C733.634 168.816 733.689 168.994 733.676 169.175C733.662 169.355 733.581 169.524 733.449 169.647C733.317 169.771 733.143 169.84 732.962 169.841L732.959 169.84Z" fill="#367CFF"/>
<path d="M717.933 179.366C717.933 181.087 718.617 182.737 719.836 183.953C721.054 185.17 722.706 185.854 724.429 185.854C726.151 185.854 727.803 185.17 729.022 183.953C730.24 182.737 730.924 181.087 730.924 179.366C730.953 177.674 730.308 176.04 729.131 174.824C727.953 173.607 726.34 172.907 724.646 172.878C724.573 172.878 724.502 172.878 724.429 172.878C719.803 173.105 717.933 175.783 717.933 179.366Z" fill="#E98862"/>
<path d="M717.879 164.106C714.278 164.078 710.684 163.775 707.129 163.201C707.129 163.201 708.217 135.824 737.327 137.385C741.106 137.212 744.894 137.436 748.627 138.051C757.377 139.39 769.781 148.325 771.784 170.685C772.702 180.943 776.242 190.612 778.943 196.734C779.263 197.453 779.397 198.24 779.334 199.024C779.272 199.808 779.015 200.564 778.586 201.223C778.157 201.882 777.57 202.424 776.878 202.8C776.187 203.175 775.412 203.372 774.625 203.373L712.259 202.877C711.522 202.877 710.795 202.705 710.136 202.375C709.477 202.044 708.905 201.564 708.465 200.973C708.025 200.382 707.73 199.697 707.602 198.971C707.475 198.246 707.52 197.501 707.732 196.796C711.124 185.575 717.335 178.697 717.879 164.106Z" fill="#0F1011"/>
<path d="M608.351 279.655C608.351 279.655 593.336 275.497 591.179 272.631C589.022 269.765 594.266 260.117 594.266 260.117C594.266 260.117 579.251 253.978 580.694 251.555C582.402 248.694 601.15 258.933 601.15 258.933C601.15 258.933 597.072 254.119 599.067 252.846C599.888 252.318 600.955 252.894 604.002 256.231C607.475 260.033 613.478 265.428 613.478 265.428L608.351 279.655Z" fill="#E98862"/>
<path d="M683.057 639.441C680.717 619.779 680.717 617.756 680.717 617.092H702.922C702.922 617.024 702.922 616.938 702.922 616.832C703.001 618.474 704.121 628.487 705.113 636.823L683.057 639.441Z" fill="#E98862"/>
<path d="M771.532 642.092C771.532 642.092 771.458 619.125 771.458 617.092H793.663C793.663 619.118 793.737 642.016 793.737 642.016L771.532 642.092Z" fill="#E98862"/>
<path d="M803.695 362.13C803.695 365.277 802.032 375.798 804.708 376.55C806.312 377.001 808.207 369.158 808.207 369.158" fill="#E98862"/>
<path d="M816.329 360.477C816.329 360.477 825.067 381.72 815.1 393.923C814.846 394.234 814.504 394.461 814.119 394.575C813.733 394.688 813.323 394.683 812.94 394.56C812.558 394.436 812.222 394.201 811.976 393.883C811.73 393.566 811.586 393.182 811.562 392.781C811.078 384.553 809.416 367.653 803.985 369.626V356.359" fill="#E98862"/>
<path d="M790.518 497.917C788.373 464.777 784.668 409.185 782.849 376.566H783.15L780.02 324.078L699.577 329.036L698.751 334.665L698.469 334.582C689.04 384.496 685.019 439.697 677.376 489.97C676.839 536.555 676.691 585.304 674.865 631.775L713.989 632.44C713.867 587.045 714.989 539.586 716.331 494.115C722.464 458.473 731.077 418.921 737.992 383.668C744.245 452.348 753.569 564.863 760.485 634.471L799.47 631.181L790.518 497.917Z" fill="#262626"/>
<path d="M744.542 650.668C743.972 650.666 743.408 650.551 742.882 650.33C742.356 650.11 741.878 649.788 741.477 649.383C741.076 648.979 740.758 648.499 740.542 647.972C740.327 647.444 740.217 646.88 740.22 646.31C740.22 646.204 740.224 646.099 740.232 645.993C740.297 645.169 740.595 644.38 741.093 643.72C741.591 643.06 742.268 642.555 743.043 642.266L768.889 633.62C769.389 633.454 769.92 633.399 770.444 633.457C770.968 633.515 771.473 633.686 771.926 633.957C775.478 636.419 779.729 637.678 784.052 637.547C787.418 637.309 790.65 636.13 793.378 634.145C793.618 633.948 793.909 633.824 794.216 633.786C794.524 633.749 794.836 633.799 795.117 633.932C795.397 634.065 795.633 634.275 795.799 634.537C795.964 634.799 796.052 635.102 796.051 635.412V648.035C796.051 648.785 795.753 649.504 795.222 650.034C794.691 650.565 793.97 650.863 793.219 650.863H793.208L744.542 650.668Z" fill="#C1D8ED"/>
<path d="M656.006 650.668C655.435 650.666 654.871 650.551 654.345 650.33C653.819 650.11 653.342 649.788 652.941 649.383C652.539 648.979 652.222 648.499 652.006 647.972C651.79 647.444 651.68 646.88 651.683 646.31C651.683 646.204 651.687 646.099 651.696 645.993C651.76 645.169 652.059 644.38 652.557 643.72C653.055 643.059 653.732 642.555 654.507 642.266L680.352 633.62C680.853 633.454 681.384 633.399 681.908 633.457C682.432 633.515 682.938 633.686 683.39 633.957C686.943 636.419 691.193 637.678 695.515 637.547C698.882 637.309 702.114 636.13 704.843 634.145C705.082 633.948 705.373 633.824 705.681 633.786C705.989 633.748 706.301 633.799 706.581 633.932C706.861 634.065 707.098 634.274 707.263 634.536C707.428 634.798 707.516 635.102 707.515 635.412V648.034C707.515 648.785 707.216 649.504 706.685 650.034C706.154 650.565 705.434 650.863 704.683 650.863H704.671L656.006 650.668Z" fill="#C1D8ED"/>
<path d="M811.465 295.131C811.348 294.352 811.153 293.587 810.881 292.848L786.611 226.933L786.465 226.986C785.41 223.741 783.589 220.796 781.156 218.4C776.324 213.576 767.959 210.453 757.77 210.453C742.603 210.453 721.888 210.486 717.642 210.664C704.672 211.22 698.609 217.026 696.131 225.602L665.802 279.984L613.204 260.44L605.462 281.226L666.989 304.092C669.475 305.018 672.212 305.023 674.701 304.106C677.191 303.19 679.27 301.412 680.559 299.096L697.485 268.747C697.934 273.061 698.269 277.301 698.315 281.343C698.721 315.631 689.452 322.09 694.02 332.573C698.455 342.738 785.508 346.967 786.672 329.071C787.412 317.689 777.367 307.747 777.367 285.56C777.451 281.343 778.009 277.15 779.03 273.058L788.832 299.679L798.454 364.424L821.261 361.045L811.465 295.131Z" fill="#367CFF"/>
<path d="M479.955 580.781C520.161 580.781 552.755 548.227 552.755 508.071C552.755 467.914 520.161 435.36 479.955 435.36C439.749 435.36 407.156 467.914 407.156 508.071C407.156 548.227 439.749 580.781 479.955 580.781Z" fill="#C1D8ED"/>
<path d="M434.681 475.681C426.332 541.619 481.113 559.591 481.113 559.591C481.113 559.591 531.41 540.476 525.629 475.843C525.629 475.843 496.277 482.017 481.113 459.915C481.113 459.916 469.965 481.34 434.681 475.681Z" fill="white"/>
<path d="M495.401 501.62H493.201V496.711C493.17 493.223 491.761 489.888 489.28 487.433C486.8 484.977 483.448 483.6 479.956 483.6C476.463 483.6 473.112 484.977 470.632 487.433C468.151 489.888 466.742 493.223 466.711 496.711V501.62H464.512C463.507 501.62 462.543 502.019 461.832 502.729C461.121 503.439 460.721 504.402 460.721 505.406V530.088C460.721 531.092 461.121 532.055 461.832 532.765C462.543 533.475 463.507 533.874 464.512 533.874H495.403C496.408 533.874 497.372 533.475 498.083 532.765C498.794 532.055 499.194 531.092 499.194 530.088V505.406C499.194 504.909 499.095 504.416 498.905 503.957C498.714 503.497 498.435 503.08 498.083 502.728C497.73 502.377 497.312 502.098 496.852 501.908C496.392 501.717 495.899 501.62 495.401 501.62ZM471.016 496.711C471.042 494.36 471.995 492.114 473.669 490.46C475.342 488.806 477.602 487.879 479.956 487.879C482.31 487.879 484.569 488.806 486.243 490.46C487.917 492.114 488.87 494.36 488.896 496.711V501.62H471.016V496.711Z" fill="#0CBC8B"/>
<path d="M387.983 272.024C392.439 272.024 396.051 268.416 396.051 263.966C396.051 259.515 392.439 255.908 387.983 255.908C383.528 255.908 379.916 259.515 379.916 263.966C379.916 268.416 383.528 272.024 387.983 272.024Z" fill="white"/>
<path d="M412.206 272.024C416.662 272.024 420.274 268.416 420.274 263.966C420.274 259.515 416.662 255.908 412.206 255.908C407.75 255.908 404.138 259.515 404.138 263.966C404.138 268.416 407.75 272.024 412.206 272.024Z" fill="white"/>
<path d="M436.43 272.024C440.886 272.024 444.498 268.416 444.498 263.966C444.498 259.515 440.886 255.908 436.43 255.908C431.974 255.908 428.362 259.515 428.362 263.966C428.362 268.416 431.974 272.024 436.43 272.024Z" fill="white"/>
<path d="M460.654 272.024C465.11 272.024 468.722 268.416 468.722 263.966C468.722 259.515 465.11 255.908 460.654 255.908C456.198 255.908 452.586 259.515 452.586 263.966C452.586 268.416 456.198 272.024 460.654 272.024Z" fill="white"/>
<path d="M484.876 272.024C489.332 272.024 492.944 268.416 492.944 263.966C492.944 259.515 489.332 255.908 484.876 255.908C480.421 255.908 476.809 259.515 476.809 263.966C476.809 268.416 480.421 272.024 484.876 272.024Z" fill="white"/>
<path d="M509.1 272.024C513.556 272.024 517.168 268.416 517.168 263.966C517.168 259.515 513.556 255.908 509.1 255.908C504.645 255.908 501.032 259.515 501.032 263.966C501.032 268.416 504.645 272.024 509.1 272.024Z" fill="white"/>
<path d="M532.459 272.024C536.915 272.024 540.527 268.416 540.527 263.966C540.527 259.515 536.915 255.908 532.459 255.908C528.003 255.908 524.391 259.515 524.391 263.966C524.391 268.416 528.003 272.024 532.459 272.024Z" fill="white"/>
<path d="M387.983 358.375C392.439 358.375 396.051 354.767 396.051 350.317C396.051 345.867 392.439 342.259 387.983 342.259C383.528 342.259 379.916 345.867 379.916 350.317C379.916 354.767 383.528 358.375 387.983 358.375Z" fill="white"/>
<path d="M412.206 358.375C416.662 358.375 420.274 354.767 420.274 350.317C420.274 345.867 416.662 342.259 412.206 342.259C407.75 342.259 404.138 345.867 404.138 350.317C404.138 354.767 407.75 358.375 412.206 358.375Z" fill="white"/>
<path d="M436.43 358.375C440.886 358.375 444.498 354.767 444.498 350.317C444.498 345.867 440.886 342.259 436.43 342.259C431.974 342.259 428.362 345.867 428.362 350.317C428.362 354.767 431.974 358.375 436.43 358.375Z" fill="white"/>
<path d="M460.654 358.375C465.11 358.375 468.722 354.767 468.722 350.317C468.722 345.867 465.11 342.259 460.654 342.259C456.198 342.259 452.586 345.867 452.586 350.317C452.586 354.767 456.198 358.375 460.654 358.375Z" fill="white"/>
<path d="M484.876 358.375C489.332 358.375 492.944 354.767 492.944 350.317C492.944 345.867 489.332 342.259 484.876 342.259C480.421 342.259 476.809 345.867 476.809 350.317C476.809 354.767 480.421 358.375 484.876 358.375Z" fill="white"/>
<path d="M509.1 358.375C513.556 358.375 517.168 354.767 517.168 350.317C517.168 345.867 513.556 342.259 509.1 342.259C504.645 342.259 501.032 345.867 501.032 350.317C501.032 354.767 504.645 358.375 509.1 358.375Z" fill="white"/>
</svg>
