<svg width="31" height="32" viewBox="0 0 31 32" fill="none" xmlns="http://www.w3.org/2000/svg">
<path d="M15.4863 21.4343C18.7425 21.4343 21.3823 18.7946 21.3823 15.5383C21.3823 12.282 18.7425 9.64222 15.4863 9.64222C12.23 9.64222 9.59021 12.282 9.59021 15.5383C9.59021 18.7946 12.23 21.4343 15.4863 21.4343Z" stroke="#0165FF" stroke-width="2" stroke-miterlimit="10"/>
<path d="M25.818 25.8186C24.4695 27.1705 22.8672 28.2427 21.103 28.9734C19.3389 29.7041 17.4478 30.079 15.5383 30.0765C7.50917 30.0765 1 23.5674 1 15.5383C1 7.50916 7.50917 1 15.5383 1C23.5674 1 30.5153 7.72797 29.939 16.6206C29.939 17.7485 29.491 18.8301 28.6935 19.6277C27.8959 20.4252 26.8143 20.8733 25.6864 20.8733V20.8733C24.5585 20.8733 23.4768 20.4252 22.6793 19.6277C21.8818 18.8301 21.4337 17.7485 21.4337 16.6206V10.5069" stroke="#0165FF" stroke-width="2" stroke-linecap="round" stroke-linejoin="round"/>
</svg>
