<svg width="55" height="33" viewBox="0 0 55 33" fill="none" xmlns="http://www.w3.org/2000/svg">
<path d="M51.9854 13.875H3.01458C1.41871 13.875 0.125 14.9915 0.125 16.3687V16.6313C0.125 18.0085 1.41871 19.125 3.01458 19.125H51.9854C53.5813 19.125 54.875 18.0085 54.875 16.6313V16.3687C54.875 14.9915 53.5813 13.875 51.9854 13.875Z" fill="#0165FF"/>
<path d="M51.9854 27H3.01458C1.41871 27 0.125 28.1165 0.125 29.4938V29.7562C0.125 31.1335 1.41871 32.25 3.01458 32.25H51.9854C53.5813 32.25 54.875 31.1335 54.875 29.7562V29.4938C54.875 28.1165 53.5813 27 51.9854 27Z" fill="#0165FF"/>
<path d="M51.9854 0.534302H3.01458C1.41871 0.534302 0.125 1.65079 0.125 3.02805V3.29055C0.125 4.66781 1.41871 5.7843 3.01458 5.7843H51.9854C53.5813 5.7843 54.875 4.66781 54.875 3.29055V3.02805C54.875 1.65079 53.5813 0.534302 51.9854 0.534302Z" fill="#0165FF"/>
</svg>
