<svg width="26" height="28" viewBox="0 0 26 28" fill="none" xmlns="http://www.w3.org/2000/svg">
<path d="M10.6364 0C6.73636 0 3.54545 2.7 3.54545 6V10C1.53636 10 0 11.3 0 13V19C0 21.4 1.06364 23.7 3.07273 25.4C5.08182 27.1 7.8 28 10.6364 28C15.7182 28 19.9727 25 21.0364 21C21.1545 21 21.1545 21 21.2727 21C22.5727 21 23.7545 20.6 24.5818 19.8C25.5273 19 26 18 26 17C26 16 25.5273 14.9 24.5818 14.2C23.6364 13.5 22.5727 13 21.2727 13C21.2727 11.3 19.7364 10 17.7273 10V6C17.7273 2.7 14.5364 0 10.6364 0ZM22.9273 15.6C23.4 16 23.6364 16.5 23.6364 17C23.6364 17.5 23.4 18 22.9273 18.4C22.3364 18.9 21.3909 19.1 20.4455 18.9C19.5 18.6 18.9091 17.9 18.9091 17C18.9091 16.5 19.1455 16 19.6182 15.6C19.8545 15.4 20.2091 15.2 20.5636 15.1C20.8 15 21.0364 15 21.2727 15C21.8636 15 22.4545 15.2 22.9273 15.6ZM18.9091 13V13.6C18.5545 13.8 18.2 14 17.9636 14.2C17.3727 14.7 16.9 15.3 16.7818 16H5.90909C5.2 16 4.72727 16.4 4.72727 17V19C4.72727 19.6 5.2 20 5.90909 20C6.61818 20 7.09091 19.6 7.09091 19V18H9.45455V19C9.45455 19.6 9.92727 20 10.6364 20C11.3455 20 11.8182 19.6 11.8182 19V18H16.6636C17.0182 19 17.7273 19.8 18.6727 20.4C17.9636 23.6 14.6545 26 10.6364 26C8.39091 26 6.38182 25.3 4.72727 24C3.19091 22.7 2.36364 20.9 2.36364 19V13C2.36364 12.4 2.83636 12 3.54545 12H17.7273C18.4364 12 18.9091 12.4 18.9091 13ZM5.90909 10V6C5.90909 3.8 8.03636 2 10.6364 2C13.2364 2 15.3636 3.8 15.3636 6V10H5.90909Z" fill="#0165FF"/>
</svg>
