<svg width="24" height="35" viewBox="0 0 24 35" fill="none" xmlns="http://www.w3.org/2000/svg">
<path d="M12.0012 0C10.2627 0 8.83964 1.40343 8.83964 3.12393V4.99895H0.631579C0.464076 4.99897 0.303439 5.06485 0.184998 5.18206C0.0665573 5.29928 1.25266e-05 5.45829 0 5.62405V34.375C1.88563e-05 34.5407 0.066566 34.6997 0.185006 34.8169C0.303446 34.9341 0.46408 35 0.631579 35H23.3684C23.5359 35 23.6966 34.9341 23.815 34.8169C23.9334 34.6997 24 34.5407 24 34.375V5.62405C24 5.45829 23.9334 5.29928 23.815 5.18206C23.6966 5.06485 23.5359 4.99897 23.3684 4.99895H15.1579V3.12393C15.1579 1.40343 13.7398 0 12.0012 0V0ZM12.0012 1.25129C13.0618 1.25129 13.8935 2.07434 13.8935 3.12393V6.87527H10.104V3.12393C10.104 2.07434 10.9406 1.25129 12.0012 1.25129ZM1.26316 6.24901H8.83964V7.49785C8.83932 7.58044 8.85554 7.66228 8.88737 7.73863C8.91919 7.81498 8.96599 7.88431 9.02507 7.94265C9.08414 8.001 9.15431 8.04719 9.23152 8.07854C9.30873 8.10989 9.39146 8.12581 9.47492 8.12533H14.5288C14.6963 8.12467 14.8567 8.05816 14.9746 7.94049C15.0926 7.82282 15.1585 7.66361 15.1579 7.49785V6.24901H22.7368V33.75H1.26316V6.24901ZM12.0012 9.9979C9.91587 9.9979 8.21053 11.6856 8.21053 13.7493C8.21053 15.813 9.91587 17.5006 12.0012 17.5006C14.0866 17.5006 15.7919 15.813 15.7919 13.7493C15.7919 11.6856 14.0866 9.9979 12.0012 9.9979ZM12.0012 11.2492C13.4039 11.2492 14.5288 12.3612 14.5288 13.7493C14.5288 15.1375 13.4039 16.2506 12.0012 16.2506C10.5985 16.2506 9.47492 15.1375 9.47492 13.7493C9.47492 12.3612 10.5985 11.2492 12.0012 11.2492ZM9.47492 18.7506C7.03658 18.7506 5.0551 20.7116 5.0551 23.1246C5.05577 23.2895 5.12226 23.4475 5.2401 23.5641C5.35794 23.6807 5.51757 23.7465 5.68421 23.7472H18.3133C18.3964 23.7477 18.4787 23.7319 18.5556 23.7009C18.6325 23.6698 18.7024 23.6241 18.7614 23.5663C18.8204 23.5084 18.8673 23.4397 18.8994 23.3639C18.9316 23.2881 18.9483 23.2068 18.9486 23.1246C18.9486 20.7116 16.9671 18.7506 14.5288 18.7506H9.47492ZM9.47492 20.0019H14.5288C16.0397 20.0019 17.1018 21.107 17.4239 22.4971H6.57854C6.90069 21.107 7.96403 20.0019 9.47492 20.0019V20.0019ZM5.68421 26.2485C5.60011 26.2467 5.51648 26.2615 5.43824 26.2921C5.36 26.3227 5.28872 26.3684 5.22859 26.4266C5.16845 26.4848 5.12068 26.5544 5.08806 26.6311C5.05544 26.7079 5.03864 26.7903 5.03864 26.8735C5.03864 26.9568 5.05544 27.0391 5.08806 27.1159C5.12068 27.1926 5.16845 27.2622 5.22859 27.3204C5.28872 27.3786 5.36 27.4243 5.43824 27.4549C5.51648 27.4855 5.60011 27.5004 5.68421 27.4985H18.3133C18.3974 27.5004 18.4811 27.4855 18.5593 27.4549C18.6375 27.4243 18.7088 27.3786 18.7689 27.3204C18.8291 27.2622 18.8769 27.1926 18.9095 27.1159C18.9421 27.0391 18.9589 26.9568 18.9589 26.8735C18.9589 26.7903 18.9421 26.7079 18.9095 26.6311C18.8769 26.5544 18.8291 26.4848 18.7689 26.4266C18.7088 26.3684 18.6375 26.3227 18.5593 26.2921C18.4811 26.2615 18.3974 26.2467 18.3133 26.2485H5.68421ZM5.68421 29.9998C5.60006 29.9979 5.51638 30.0127 5.43808 30.0433C5.35978 30.0739 5.28844 30.1196 5.22825 30.1778C5.16805 30.236 5.12023 30.3056 5.08758 30.3823C5.05492 30.4591 5.0381 30.5416 5.0381 30.6249C5.0381 30.7082 5.05492 30.7906 5.08758 30.8674C5.12023 30.9441 5.16805 31.0137 5.22825 31.0719C5.28844 31.1301 5.35978 31.1759 5.43808 31.2064C5.51638 31.237 5.60006 31.2518 5.68421 31.2499H13.2644C13.3485 31.2518 13.4322 31.237 13.5105 31.2064C13.5888 31.1759 13.6602 31.1301 13.7204 31.0719C13.7805 31.0137 13.8284 30.9441 13.861 30.8674C13.8937 30.7906 13.9105 30.7082 13.9105 30.6249C13.9105 30.5416 13.8937 30.4591 13.861 30.3823C13.8284 30.3056 13.7805 30.236 13.7204 30.1778C13.6602 30.1196 13.5888 30.0739 13.5105 30.0433C13.4322 30.0127 13.3485 29.9979 13.2644 29.9998H5.68421Z" fill="#0165FF"/>
</svg>
